<mxfile host="Electron" agent="Mozilla/5.0 (Macintosh; Intel Mac OS X 10_15_7) AppleWebKit/537.36 (KHTML, like Gecko) draw.io/28.1.2 Chrome/138.0.7204.243 Electron/37.4.0 Safari/537.36" version="28.1.2">
  <diagram name="Seite-1" id="NrbdtOU8l5xmAe7ymhUr">
    <mxGraphModel dx="1410" dy="774" grid="1" gridSize="10" guides="1" tooltips="1" connect="1" arrows="1" fold="1" page="1" pageScale="1" pageWidth="827" pageHeight="1169" math="0" shadow="0">
      <root>
        <mxCell id="0" />
        <mxCell id="1" parent="0" />
        <mxCell id="a6-sa-Pfjen3ggbp_8G2-51" value="/buch/infra" style="rounded=0;whiteSpace=wrap;html=1;labelPosition=center;verticalLabelPosition=middle;align=center;verticalAlign=top;strokeColor=#FF0000;" parent="1" vertex="1">
          <mxGeometry x="190" y="30" width="470" height="580" as="geometry" />
        </mxCell>
        <mxCell id="a6-sa-Pfjen3ggbp_8G2-72" style="edgeStyle=orthogonalEdgeStyle;rounded=0;orthogonalLoop=1;jettySize=auto;html=1;exitX=0.5;exitY=1;exitDx=0;exitDy=0;entryX=1;entryY=0.5;entryDx=0;entryDy=0;" parent="1" source="a6-sa-Pfjen3ggbp_8G2-50" target="a6-sa-Pfjen3ggbp_8G2-48" edge="1">
          <mxGeometry relative="1" as="geometry" />
        </mxCell>
        <mxCell id="a6-sa-Pfjen3ggbp_8G2-50" value="/buch/usecase" style="rounded=0;whiteSpace=wrap;html=1;labelPosition=center;verticalLabelPosition=middle;align=center;verticalAlign=top;strokeColor=#FF8000;" parent="1" vertex="1">
          <mxGeometry x="231" y="140" width="386" height="370" as="geometry" />
        </mxCell>
        <mxCell id="a6-sa-Pfjen3ggbp_8G2-39" value="/buch/domain" style="rounded=0;whiteSpace=wrap;html=1;labelPosition=center;verticalLabelPosition=middle;align=center;verticalAlign=top;strokeColor=#009900;" parent="1" vertex="1">
          <mxGeometry x="329" y="260" width="190" height="225" as="geometry" />
        </mxCell>
        <mxCell id="zNS-ytIkZfyz8ksTLdgv-4" style="edgeStyle=orthogonalEdgeStyle;shape=connector;rounded=0;orthogonalLoop=1;jettySize=auto;html=1;exitX=0.5;exitY=1;exitDx=0;exitDy=0;entryX=0.25;entryY=0;entryDx=0;entryDy=0;strokeColor=default;align=center;verticalAlign=middle;fontFamily=Helvetica;fontSize=11;fontColor=default;labelBackgroundColor=default;endArrow=classic;endFill=1;" edge="1" parent="1" source="a6-sa-Pfjen3ggbp_8G2-41" target="a6-sa-Pfjen3ggbp_8G2-50">
          <mxGeometry relative="1" as="geometry" />
        </mxCell>
        <mxCell id="a6-sa-Pfjen3ggbp_8G2-41" value="BuchRestController" style="rounded=0;whiteSpace=wrap;html=1;labelPosition=center;verticalLabelPosition=middle;align=center;verticalAlign=middle;" parent="1" vertex="1">
          <mxGeometry x="229" y="60" width="131" height="40" as="geometry" />
        </mxCell>
        <mxCell id="a6-sa-Pfjen3ggbp_8G2-61" style="edgeStyle=orthogonalEdgeStyle;rounded=0;orthogonalLoop=1;jettySize=auto;html=1;exitX=0.5;exitY=1;exitDx=0;exitDy=0;entryX=0.5;entryY=0;entryDx=0;entryDy=0;" parent="1" source="a6-sa-Pfjen3ggbp_8G2-43" target="a6-sa-Pfjen3ggbp_8G2-44" edge="1">
          <mxGeometry relative="1" as="geometry" />
        </mxCell>
        <mxCell id="a6-sa-Pfjen3ggbp_8G2-43" value="BuchDomainService" style="rounded=0;whiteSpace=wrap;html=1;labelPosition=center;verticalLabelPosition=middle;align=center;verticalAlign=middle;fontStyle=0;fontColor=#FFFF00;" parent="1" vertex="1">
          <mxGeometry x="348" y="305" width="150" height="40" as="geometry" />
        </mxCell>
        <mxCell id="a6-sa-Pfjen3ggbp_8G2-62" style="edgeStyle=orthogonalEdgeStyle;rounded=0;orthogonalLoop=1;jettySize=auto;html=1;exitX=0.5;exitY=1;exitDx=0;exitDy=0;entryX=0.5;entryY=0;entryDx=0;entryDy=0;" parent="1" source="a6-sa-Pfjen3ggbp_8G2-44" target="a6-sa-Pfjen3ggbp_8G2-45" edge="1">
          <mxGeometry relative="1" as="geometry" />
        </mxCell>
        <mxCell id="a6-sa-Pfjen3ggbp_8G2-44" value="BuchJpaRepository&lt;div&gt;Interface&lt;/div&gt;" style="rounded=0;whiteSpace=wrap;html=1;labelPosition=center;verticalLabelPosition=middle;align=center;verticalAlign=middle;" parent="1" vertex="1">
          <mxGeometry x="348" y="365" width="150" height="40" as="geometry" />
        </mxCell>
        <mxCell id="a6-sa-Pfjen3ggbp_8G2-45" value="BuchDomainJpaEntity" style="rounded=0;whiteSpace=wrap;html=1;labelPosition=center;verticalLabelPosition=middle;align=center;verticalAlign=middle;fontStyle=0;fontColor=#FFFF00;" parent="1" vertex="1">
          <mxGeometry x="348" y="425" width="150" height="40" as="geometry" />
        </mxCell>
        <mxCell id="a6-sa-Pfjen3ggbp_8G2-48" value="BuchRestClient" style="rounded=0;whiteSpace=wrap;html=1;labelPosition=center;verticalLabelPosition=middle;align=center;verticalAlign=middle;" parent="1" vertex="1">
          <mxGeometry x="231" y="540" width="150" height="40" as="geometry" />
        </mxCell>
        <mxCell id="zNS-ytIkZfyz8ksTLdgv-6" style="edgeStyle=orthogonalEdgeStyle;shape=connector;rounded=0;orthogonalLoop=1;jettySize=auto;html=1;exitX=0.25;exitY=1;exitDx=0;exitDy=0;entryX=0;entryY=0.5;entryDx=0;entryDy=0;strokeColor=default;align=center;verticalAlign=middle;fontFamily=Helvetica;fontSize=11;fontColor=default;labelBackgroundColor=default;endArrow=classic;endFill=1;" edge="1" parent="1" source="a6-sa-Pfjen3ggbp_8G2-52" target="a6-sa-Pfjen3ggbp_8G2-39">
          <mxGeometry relative="1" as="geometry" />
        </mxCell>
        <mxCell id="a6-sa-Pfjen3ggbp_8G2-52" value="BuchKatalogisieren&lt;div&gt;UseCase&lt;/div&gt;" style="rounded=0;whiteSpace=wrap;html=1;labelPosition=center;verticalLabelPosition=middle;align=center;verticalAlign=middle;fontStyle=0;fontColor=#FFFF00;" parent="1" vertex="1">
          <mxGeometry x="256" y="185" width="150" height="40" as="geometry" />
        </mxCell>
        <mxCell id="zNS-ytIkZfyz8ksTLdgv-7" style="edgeStyle=orthogonalEdgeStyle;shape=connector;rounded=0;orthogonalLoop=1;jettySize=auto;html=1;exitX=0.75;exitY=1;exitDx=0;exitDy=0;entryX=1;entryY=0.5;entryDx=0;entryDy=0;strokeColor=default;align=center;verticalAlign=middle;fontFamily=Helvetica;fontSize=11;fontColor=default;labelBackgroundColor=default;endArrow=classic;endFill=1;" edge="1" parent="1" source="a6-sa-Pfjen3ggbp_8G2-53" target="a6-sa-Pfjen3ggbp_8G2-39">
          <mxGeometry relative="1" as="geometry" />
        </mxCell>
        <mxCell id="a6-sa-Pfjen3ggbp_8G2-53" value="BuchSuche&lt;div&gt;UseCase&lt;/div&gt;" style="rounded=0;whiteSpace=wrap;html=1;labelPosition=center;verticalLabelPosition=middle;align=center;verticalAlign=middle;fontStyle=0;fontColor=#FFFF00;" parent="1" vertex="1">
          <mxGeometry x="442" y="185" width="150" height="40" as="geometry" />
        </mxCell>
        <mxCell id="zNS-ytIkZfyz8ksTLdgv-1" value="&lt;span style=&quot;font-size: 12px; background-color: rgb(27, 29, 30);&quot;&gt;ddd onion&amp;nbsp;&lt;/span&gt;&lt;div&gt;&lt;span style=&quot;font-size: 12px; background-color: rgb(27, 29, 30);&quot;&gt;split service&lt;/span&gt;&lt;/div&gt;" style="rounded=0;whiteSpace=wrap;html=1;fontFamily=Helvetica;fontSize=11;fontColor=default;labelBackgroundColor=default;dashed=1;" vertex="1" parent="1">
          <mxGeometry x="560" y="40" width="93" height="50" as="geometry" />
        </mxCell>
      </root>
    </mxGraphModel>
  </diagram>
</mxfile>
